<?xml version="1.0" encoding="UTF-8"?>
<svg id="Calque_1" data-name="Calque 1" xmlns="http://www.w3.org/2000/svg" width="132mm" height="30.1mm" viewBox="0 0 374.2 85.3">
  <defs>
    <style>
      .cls-1 {
        fill: #eca100;
        fill-rule: evenodd;
      }

      .cls-2 {
        fill: #646363;
      }
    </style>
  </defs>
  <path class="cls-1" d="m179,50c-7.3,1.7-23.5-12.9-23.5-12.9L120.5,5.2l-15.6,23.5L77.3,0l-22.7,35.8L26.9,11.1,0,49.2l4.4,2.1,20.8-28.1,34,33.4,22.7-39.6,18.6,19.6-5.6,8.6,8.1,7.3,19.4-28.4,22.5,21.4s15.6,14.6,23.9,13.8c8.6-.8,10.1-9.5,10.1-9.5Z"/>
  <path class="cls-2" d="m199.9,37.3v20.4h-7.4V4.7h20.1c5,0,8.8,1.3,11.5,3.9,2.7,2.6,4.1,6.4,4.1,11.3v1.9c0,2.3-.3,4.4-1,6.3-.7,1.9-1.7,3.5-3.1,4.9s-3.1,2.4-5.2,3.2c-2.1.7-4.7,1.1-7.6,1.1h-11.3Zm0-6h10.6c3.4,0,6-.7,7.6-2.2,1.6-1.5,2.5-3.9,2.5-7.1v-1.6c0-3.2-.8-5.6-2.3-7.3-1.5-1.6-4-2.4-7.3-2.4h-11.1v20.7Z"/>
  <path class="cls-2" d="m233.4,45.9c0-2.3.3-4.2,1-5.7.7-1.5,1.7-2.7,3-3.7,1.3-.9,2.8-1.6,4.6-2,1.8-.4,3.8-.6,6-.6s4.3.2,6,.7c1.7.5,3.2,1.3,4.3,2.5v-3c0-1.9-.2-3.5-.7-4.8-.5-1.3-1.2-2.3-2.2-3.1-.9-.8-2.1-1.3-3.5-1.7-1.4-.3-2.9-.5-4.7-.5s-3.5.1-5.4.4c-1.9.3-3.6.6-5.2,1l1-5.6c1.4-.4,3-.7,5-1,1.9-.3,3.9-.4,6.1-.4,5.4,0,9.5,1.2,12.3,3.6,2.8,2.4,4.2,6.1,4.2,10.9v24.8h-6.2l-.6-4.1c-1.2,1.8-2.9,3-4.9,3.8-2,.7-4.3,1.1-6.7,1.1-4.4,0-7.8-.9-10.1-2.8-2.3-1.9-3.4-4.8-3.4-8.9v-.9Zm6.9.4c0,2.2.6,3.9,1.9,5,1.3,1.1,3.4,1.6,6.5,1.6s2.7-.1,3.8-.4c1.2-.2,2.2-.7,3-1.2.8-.6,1.5-1.3,2-2.2.5-.9.7-2,.7-3.3v-.6c0-2-.7-3.5-2-4.6-1.4-1.1-3.6-1.6-6.6-1.6h-1.3c-2.8,0-4.9.5-6.2,1.6-1.3,1.1-1.9,2.8-1.9,5.1v.6Z"/>
  <path class="cls-2" d="m301.5,57c-1.2.4-2.7.7-4.2,1-1.6.3-3.3.4-5,.4-3.3,0-6-.4-8.3-1.3-2.2-.8-4-2.1-5.4-3.6-1.4-1.6-2.3-3.5-2.9-5.7-.6-2.2-.9-4.7-.9-7.5v-3.6c0-2.8.3-5.4,1-7.6.7-2.2,1.8-4.1,3.2-5.7,1.5-1.6,3.3-2.8,5.6-3.6,2.3-.8,5-1.3,8.3-1.3s3.6.1,5.2.4c1.6.3,3,.6,4.3,1l-1.3,5.4c-2.5-.7-4.9-1-7.2-1s-3.9.2-5.4.6c-1.5.4-2.7,1.1-3.6,2.2-.9,1-1.6,2.3-2.1,3.9-.4,1.6-.7,3.6-.7,6v2.7c0,2.3.2,4.3.7,6,.4,1.6,1.2,3,2.1,4,1,1,2.2,1.8,3.8,2.3,1.5.5,3.4.7,5.7.7s2.8,0,4.1-.3c1.3-.2,2.6-.4,3.9-.7l-.9,5.4Z"/>
  <path class="cls-2" d="m323.1,24.9v19.9c0,2.9.5,4.9,1.6,6.1,1.1,1.2,3,1.8,5.7,1.8s2.1,0,3-.2c.8-.1,1.6-.2,2.2-.3l-.9,5.2c-.8.3-1.8.5-2.9.7-1.2.2-2.3.3-3.5.3-2.1,0-3.9-.2-5.4-.7-1.5-.5-2.8-1.2-3.8-2.3-1-1.1-1.8-2.5-2.3-4.2-.5-1.8-.7-3.9-.7-6.5v-19.7h-7.5l.9-5.7h6.6v-9.6l7.1-1v10.6h12.3l-1,5.7h-11.3Z"/>
  <path class="cls-2" d="m348.6,40.8c0,2.2.3,4.1.7,5.6.4,1.5,1.1,2.8,2.1,3.7,1,1,2.3,1.7,4,2.1s3.8.6,6.5.6,4-.1,5.7-.4c1.7-.2,3.1-.5,4.3-.7l-1,5.4c-1.2.4-2.9.8-5,1.1-2.1.3-4.1.4-6.1.4-3.5,0-6.4-.4-8.7-1.2-2.4-.8-4.2-2-5.7-3.6-1.4-1.6-2.4-3.5-3.1-5.8-.6-2.3-.9-5-.9-7.9v-3.1c0-2.8.3-5.3,1-7.6.6-2.3,1.6-4.2,3-5.9,1.4-1.6,3.1-2.9,5.3-3.8,2.2-.9,4.7-1.3,7.7-1.3s5.3.4,7.3,1.3c2,.8,3.5,2,4.8,3.4,1.2,1.4,2.1,3.1,2.6,5,.5,1.9.8,3.9.8,6v2.7c0,1.7-.3,2.9-.8,3.4s-1.6.8-3.2.8h-21.4Zm9.5-16.9c-3.3,0-5.7.9-7.2,2.7s-2.3,4.8-2.4,9h18.5v-1.9c0-3.2-.7-5.6-2-7.3s-3.6-2.5-6.9-2.5Z"/>
  <g>
    <path class="cls-2" d="m.2,69.9h2v13.5h8v1.7H.2v-15.2Z"/>
    <path class="cls-2" d="m23.5,85c-.3.2-.7.3-1.3.3-.9,0-1.5-.5-1.5-1.7-1,1.2-2.3,1.7-3.9,1.7s-3.6-.9-3.6-3.1,1.8-3,3.7-3.4c2-.4,3.7-.3,3.7-1.6s-1.3-1.8-2.4-1.8-2.7.5-2.7,2.1h-1.8c.1-2.7,2.2-3.7,4.7-3.7s4.1.4,4.1,3v5.7c0,.8,0,1.2.6,1.2s.3,0,.6-.1v1.4Zm-2.9-5.6c-.7.5-2.1.5-3.3.7-1.2.2-2.2.6-2.2,2s1,1.6,2.1,1.6c2.4,0,3.4-1.5,3.4-2.5v-1.8Z"/>
    <path class="cls-2" d="m27.4,69.9h1.8v5.7h0c.6-1.2,2-1.7,3.5-1.7,3.4,0,5.1,2.7,5.1,5.8s-1.7,5.7-5,5.7-2.7-.4-3.5-1.7h0v1.5h-1.8v-15.2Zm5.1,5.5c-2.4,0-3.4,2.1-3.4,4.1s1,4.2,3.5,4.2,3.3-2.1,3.3-4.2-1.1-4.1-3.4-4.1Z"/>
    <path class="cls-2" d="m46.8,73.8c3.5,0,5.3,2.5,5.3,5.8s-1.8,5.7-5.3,5.7-5.3-2.5-5.3-5.7,1.8-5.8,5.3-5.8Zm0,9.9c1.9,0,3.4-1.5,3.4-4.1s-1.5-4.2-3.4-4.2-3.4,1.5-3.4,4.2,1.5,4.1,3.4,4.1Z"/>
    <path class="cls-2" d="m56.3,74.1h1.7v2.3h0c.9-1.8,2.1-2.6,4-2.6v1.9c-2.9,0-4,1.7-4,4.4v4.9h-1.8v-11Z"/>
    <path class="cls-2" d="m75.3,85c-.3.2-.7.3-1.3.3-.9,0-1.5-.5-1.5-1.7-1,1.2-2.3,1.7-3.9,1.7s-3.6-.9-3.6-3.1,1.8-3,3.7-3.4c2-.4,3.7-.3,3.7-1.6s-1.3-1.8-2.4-1.8-2.7.5-2.7,2.1h-1.8c.1-2.7,2.2-3.7,4.7-3.7s4.1.4,4.1,3v5.7c0,.8,0,1.2.6,1.2s.3,0,.6-.1v1.4Zm-2.9-5.6c-.7.5-2.1.5-3.3.7-1.2.2-2.2.6-2.2,2s1,1.6,2.1,1.6c2.4,0,3.4-1.5,3.4-2.5v-1.8Z"/>
    <path class="cls-2" d="m81.6,74.1h2.2v1.6h-2.2v6.8c0,.8.2,1,1.4,1h.8v1.6h-1.4c-1.9,0-2.6-.4-2.6-2.4v-7h-1.9v-1.6h1.9v-3.3h1.8v3.3Z"/>
    <path class="cls-2" d="m92.7,73.8c3.5,0,5.3,2.5,5.3,5.8s-1.8,5.7-5.3,5.7-5.3-2.5-5.3-5.7,1.8-5.8,5.3-5.8Zm0,9.9c1.9,0,3.4-1.5,3.4-4.1s-1.5-4.2-3.4-4.2-3.4,1.5-3.4,4.2,1.5,4.1,3.4,4.1Z"/>
    <path class="cls-2" d="m104.2,72.1h-1.8v-2.2h1.8v2.2Zm-1.8,2h1.8v11h-1.8v-11Z"/>
    <path class="cls-2" d="m109,74.1h1.7v2.3h0c.9-1.8,2.1-2.6,4-2.6v1.9c-2.9,0-4,1.7-4,4.4v4.9h-1.8v-11Z"/>
    <path class="cls-2" d="m127.3,81.5c-.5,2.4-2.2,3.7-4.7,3.7-3.5,0-5.2-2.4-5.3-5.8,0-3.3,2.2-5.7,5.2-5.7s5.1,3.6,5,6.3h-8.2c0,1.9,1,3.6,3.4,3.6s2.5-.7,2.8-2.1h1.8Zm-1.7-3.1c0-1.7-1.4-3.1-3.2-3.1s-3,1.4-3.1,3.1h6.3Z"/>
    <path class="cls-2" d="m149.3,85h-1.8v-1.5h0c-.6,1.2-2,1.7-3.5,1.7-3.4,0-5.1-2.7-5.1-5.8s1.7-5.7,5-5.7,2.7.4,3.5,1.7h0v-5.6h1.8v15.2Zm-5.1-1.3c2.4,0,3.4-2.1,3.4-4.1s-1-4.2-3.5-4.2-3.3,2.1-3.3,4.2,1.1,4.1,3.4,4.1Z"/>
    <path class="cls-2" d="m163.6,81.5c-.5,2.4-2.2,3.7-4.7,3.7-3.5,0-5.2-2.4-5.3-5.8,0-3.3,2.2-5.7,5.2-5.7s5.1,3.6,5,6.3h-8.2c0,1.9,1,3.6,3.4,3.6s2.5-.7,2.8-2.1h1.8Zm-1.7-3.1c0-1.7-1.4-3.1-3.2-3.1s-3,1.4-3.1,3.1h6.3Z"/>
    <path class="cls-2" d="m176.9,81.6c0,1.6,1.5,2.1,3,2.1s2.7-.3,2.7-1.6-1.8-1.6-3.6-2c-1.8-.4-3.6-1-3.6-3.1s2.2-3.1,4.1-3.1,4.4.8,4.5,3.4h-1.8c-.1-1.4-1.4-1.8-2.5-1.8s-2.3.3-2.3,1.4,1.9,1.5,3.6,1.9c1.8.4,3.6,1,3.6,3.1s-2.4,3.5-4.7,3.5-4.5-1-4.7-3.7h1.8Z"/>
    <path class="cls-2" d="m196,77.6c-.3-1.4-1.2-2.2-2.7-2.2-2.6,0-3.4,2.1-3.4,4.3s.9,4,3.2,4,2.8-1,3-2.7h1.8c-.4,2.7-2.1,4.3-4.8,4.3s-5.1-2.3-5.1-5.6,1.7-5.9,5.2-5.9,4.5,1.2,4.7,3.8h-1.9Z"/>
    <path class="cls-2" d="m204,72.1h-1.8v-2.2h1.8v2.2Zm-1.8,2h1.8v11h-1.8v-11Z"/>
    <path class="cls-2" d="m218.3,81.5c-.5,2.4-2.2,3.7-4.7,3.7-3.5,0-5.2-2.4-5.3-5.8,0-3.3,2.2-5.7,5.2-5.7s5.1,3.6,5,6.3h-8.2c0,1.9,1,3.6,3.4,3.6s2.5-.7,2.8-2.1h1.8Zm-1.7-3.1c0-1.7-1.4-3.1-3.2-3.1s-3,1.4-3.1,3.1h6.3Z"/>
    <path class="cls-2" d="m222.4,74.1h1.7v1.7h0c.8-1.4,2-2,3.6-2,2.9,0,3.8,1.7,3.8,4v7.2h-1.8v-7.4c0-1.3-.8-2.2-2.2-2.2-2.2,0-3.2,1.5-3.2,3.4v6.2h-1.8v-11Z"/>
    <path class="cls-2" d="m243.8,77.6c-.3-1.4-1.2-2.2-2.7-2.2-2.6,0-3.4,2.1-3.4,4.3s.9,4,3.2,4,2.8-1,3-2.7h1.8c-.4,2.7-2.1,4.3-4.8,4.3s-5.1-2.3-5.1-5.6,1.7-5.9,5.2-5.9,4.5,1.2,4.7,3.8h-1.9Z"/>
    <path class="cls-2" d="m259.3,81.5c-.5,2.4-2.2,3.7-4.7,3.7-3.5,0-5.2-2.4-5.3-5.8,0-3.3,2.2-5.7,5.2-5.7s5.1,3.6,5,6.3h-8.2c0,1.9,1,3.6,3.4,3.6s2.5-.7,2.8-2.1h1.8Zm-1.7-3.1c0-1.7-1.4-3.1-3.2-3.1s-3,1.4-3.1,3.1h6.3Z"/>
    <path class="cls-2" d="m264.5,81.6c0,1.6,1.5,2.1,3,2.1s2.7-.3,2.7-1.6-1.8-1.6-3.6-2c-1.8-.4-3.6-1-3.6-3.1s2.2-3.1,4.1-3.1,4.4.8,4.5,3.4h-1.8c-.1-1.4-1.4-1.8-2.5-1.8s-2.3.3-2.3,1.4,1.9,1.5,3.6,1.9c1.8.4,3.6,1,3.6,3.1s-2.4,3.5-4.7,3.5-4.5-1-4.7-3.7h1.8Z"/>
    <path class="cls-2" d="m285.3,81.6c0,1.6,1.5,2.1,3,2.1s2.7-.3,2.7-1.6-1.8-1.6-3.6-2c-1.8-.4-3.6-1-3.6-3.1s2.2-3.1,4.1-3.1,4.4.8,4.5,3.4h-1.8c-.1-1.4-1.4-1.8-2.5-1.8s-2.3.3-2.3,1.4,1.9,1.5,3.6,1.9c1.8.4,3.6,1,3.6,3.1s-2.4,3.5-4.7,3.5-4.5-1-4.7-3.7h1.8Z"/>
    <path class="cls-2" d="m301.7,73.8c3.5,0,5.3,2.5,5.3,5.8s-1.8,5.7-5.3,5.7-5.3-2.5-5.3-5.7,1.8-5.8,5.3-5.8Zm0,9.9c1.9,0,3.4-1.5,3.4-4.1s-1.5-4.2-3.4-4.2-3.4,1.5-3.4,4.2,1.5,4.1,3.4,4.1Z"/>
    <path class="cls-2" d="m318.7,77.6c-.3-1.4-1.2-2.2-2.7-2.2-2.6,0-3.4,2.1-3.4,4.3s.9,4,3.2,4,2.8-1,3-2.7h1.8c-.4,2.7-2.1,4.3-4.8,4.3s-5.1-2.3-5.1-5.6,1.7-5.9,5.2-5.9,4.5,1.2,4.7,3.8h-1.9Z"/>
    <path class="cls-2" d="m326.7,72.1h-1.8v-2.2h1.8v2.2Zm-1.8,2h1.8v11h-1.8v-11Z"/>
    <path class="cls-2" d="m341.4,85c-.3.2-.7.3-1.3.3-.9,0-1.5-.5-1.5-1.7-1,1.2-2.3,1.7-3.9,1.7s-3.6-.9-3.6-3.1,1.8-3,3.7-3.4c2-.4,3.7-.3,3.7-1.6s-1.3-1.8-2.4-1.8-2.7.5-2.7,2.1h-1.8c.1-2.7,2.2-3.7,4.7-3.7s4.1.4,4.1,3v5.7c0,.8,0,1.2.6,1.2s.3,0,.6-.1v1.4Zm-2.9-5.6c-.7.5-2.1.5-3.3.7-1.2.2-2.2.6-2.2,2s1,1.6,2.1,1.6c2.4,0,3.4-1.5,3.4-2.5v-1.8Z"/>
    <path class="cls-2" d="m345.3,69.9h1.8v15.2h-1.8v-15.2Z"/>
    <path class="cls-2" d="m361.4,81.5c-.5,2.4-2.2,3.7-4.7,3.7-3.5,0-5.2-2.4-5.3-5.8,0-3.3,2.2-5.7,5.2-5.7s5.1,3.6,5,6.3h-8.2c0,1.9,1,3.6,3.4,3.6s2.5-.7,2.8-2.1h1.8Zm-1.7-3.1c0-1.7-1.4-3.1-3.2-3.1s-3,1.4-3.1,3.1h6.3Z"/>
    <path class="cls-2" d="m366.7,81.6c0,1.6,1.5,2.1,3,2.1s2.7-.3,2.7-1.6-1.8-1.6-3.6-2c-1.8-.4-3.6-1-3.6-3.1s2.2-3.1,4.1-3.1,4.4.8,4.5,3.4h-1.8c-.1-1.4-1.4-1.8-2.5-1.8s-2.3.3-2.3,1.4,1.9,1.5,3.6,1.9c1.8.4,3.6,1,3.6,3.1s-2.4,3.5-4.7,3.5-4.5-1-4.7-3.7h1.8Z"/>
  </g>
</svg>